<svg width="129" height="67" viewBox="0 0 129 67" fill="none" xmlns="http://www.w3.org/2000/svg">
<path d="M67.5903 38C66.2603 38 65.1629 37.576 64.2976 36.7285C63.4323 35.881 63 34.8047 63 33.5C63 32.1953 63.4323 31.119 64.2976 30.2716C65.1629 29.4238 66.2603 29 67.5903 29C68.272 29 68.905 29.1269 69.4889 29.3802C70.0731 29.6337 70.5672 29.9932 70.9721 30.4586C71.3771 30.924 71.6605 31.4682 71.8224 32.0915H70.6847C70.4457 31.4598 70.0538 30.9654 69.5082 30.608C68.9627 30.2507 68.3231 30.072 67.5903 30.072C66.5844 30.072 65.7595 30.394 65.1159 31.038C64.4725 31.6821 64.1507 32.5048 64.1507 33.5062C64.1507 34.5076 64.4725 35.3281 65.1159 35.968C65.7595 36.6081 66.5844 36.928 67.5903 36.928C68.3404 36.928 68.9924 36.7389 69.5466 36.3608C70.1005 35.9826 70.4927 35.457 70.7227 34.7839H71.8736C71.6181 35.7727 71.1043 36.5561 70.3328 37.1337C69.5614 37.7111 68.6472 38 67.5903 38ZM77.0374 36.8405H80.9757V37.8627H75.9254V29.1371H77.0374V36.8405ZM84.8615 37.8627V29.1371H85.9735V37.8627H84.8615ZM96.8528 29.1371H97.9523V37.8627H97.0058L91.9045 31.0569V37.8627H90.8176V29.1371H91.8277L96.8528 35.8684V29.1371ZM102.784 37.8627V29.1371H103.896V37.8627H102.784ZM112.717 38C111.387 38 110.289 37.576 109.424 36.7285C108.559 35.881 108.127 34.8047 108.127 33.5C108.127 32.1953 108.559 31.119 109.424 30.2716C110.289 29.4238 111.387 29 112.717 29C113.399 29 114.032 29.1269 114.616 29.3802C115.199 29.6337 115.694 29.9932 116.099 30.4586C116.503 30.924 116.787 31.4682 116.949 32.0915H115.811C115.572 31.4598 115.181 30.9654 114.635 30.608C114.09 30.2507 113.45 30.072 112.717 30.072C111.711 30.072 110.886 30.394 110.242 31.038C109.599 31.6821 109.277 32.5048 109.277 33.5062C109.277 34.5076 109.599 35.3281 110.242 35.968C110.886 36.6081 111.711 36.928 112.717 36.928C113.467 36.928 114.119 36.7389 114.673 36.3608C115.227 35.9826 115.62 35.457 115.85 34.7839H117C116.744 35.7727 116.231 36.5561 115.459 37.1337C114.688 37.7111 113.774 38 112.717 38Z" fill="black"/>
<path d="M7.54379 38C6.52535 38 5.67988 37.6756 5.00804 37.0265C4.33592 36.3776 4 35.5519 4 34.5493V29H5.14282V34.4731C5.14282 35.1978 5.36541 35.7859 5.8106 36.2367C6.25549 36.6876 6.83342 36.913 7.54379 36.913C8.23739 36.913 8.80664 36.6876 9.25182 36.2367C9.69671 35.7859 9.9196 35.1978 9.9196 34.4731V29H11.0621V34.5493C11.0621 35.5519 10.7282 36.3776 10.0604 37.0265C9.39265 37.6756 8.55392 38 7.54379 38ZM21.8712 29H22.9755V37.8482H22.0254L16.9023 30.9468V37.8482H15.8108V29H16.8252L21.8712 35.8259V29ZM31.2556 38C30.2367 38 29.3916 37.6756 28.7195 37.0265C28.0476 36.3776 27.7117 35.5519 27.7117 34.5493V29H28.8542V34.4731C28.8542 35.1978 29.0771 35.7859 29.522 36.2367C29.9672 36.6876 30.5451 36.913 31.2556 36.913C31.9488 36.913 32.518 36.6876 32.9632 36.2367C33.4084 35.7859 33.631 35.1978 33.631 34.4731V29H34.7739V34.5493C34.7739 35.5519 34.44 36.3776 33.7722 37.0265C33.1046 37.6756 32.2656 38 31.2556 38ZM50 37.8482H48.8572L47.6886 30.9342L44.5816 37.6205H44.286L41.1789 30.9468L40.0103 37.8482H38.8547L40.3699 29H41.4485L44.4274 35.4972L47.4063 29H48.5106L50 37.8482Z" fill="black"/>
<path d="M58 37C57.9379 37.3355 57.8638 37.6688 57.7765 38H56C56.0905 37.669 56.1682 37.3357 56.2329 37H58Z" fill="#ED1C24"/>
<path d="M26.9483 3C35.5228 3 43.2859 6.414 48.9052 11.9334C54.5245 17.4527 58 25.0778 58 33.5C58 34.1781 57.9773 34.8509 57.9329 35.5181H56.6054C56.6519 34.8512 56.6757 34.1784 56.6757 33.5C56.6757 25.4369 53.3485 18.137 47.9689 12.8529C34.3045 -0.569069 10.2756 2.17305 0 18.3379C1.37275 15.9887 3.05512 13.8357 4.99173 11.9334C10.6107 6.414 18.3741 3 26.9483 3ZM57.458 39.2024C56.2763 45.3382 53.224 50.8244 48.9052 55.0665C43.2859 60.586 35.5228 64 26.9483 64C18.3741 64 10.6107 60.586 4.99173 55.0665C3.05512 53.1643 1.37275 51.0113 0 48.662C10.2756 64.8269 34.3045 67.5691 47.9689 54.1471C52.0464 50.142 54.9443 44.9783 56.1085 39.2024H57.458Z" fill="black"/>
</svg>
